STARTFONT 2.1
COMMENT Designed by Rob Myers and Ivan Bach
COMMENT Copyright (c) 1991-1993 Silicon Graphics, Inc.
COMMENT Generated by Fontographer 3.3
FONT -SGI-Screen-Bold-R-Normal--13-130-72-72-M-80-ISO8859-1
SIZE 13 72 72
FONTBOUNDINGBOX 8 13 0 -3
STARTPROPERTIES 22
_DEC_DEVICE_FONTNAMES "FM=Screen-Bold"
FONTNAME_REGISTRY ""
FAMILY_NAME "Screen"
FOUNDRY "SGI"
WEIGHT_NAME "Bold"
SLANT "R"
SETWIDTH_NAME "Normal"
ADD_STYLE_NAME ""
PIXEL_SIZE 13
POINT_SIZE 130
RESOLUTION_X 72
RESOLUTION_Y 72
SPACING "M"
AVERAGE_WIDTH 80
CHARSET_REGISTRY "ISO8859"
CHARSET_ENCODING "1"
CHARSET_COLLECTIONS "ASCII ISO8859-1"
FULL_NAME "Screen Bold"
FONT_ASCENT 10
FONT_DESCENT 3
CAP_HEIGHT 9
X_HEIGHT 7
ENDPROPERTIES
CHARS 190
STARTCHAR space
ENCODING 32
SWIDTH 615 0
DWIDTH 8 0
BBX 1 1 0 0
BITMAP
00
ENDCHAR
STARTCHAR exclam
ENCODING 33
SWIDTH 615 0
DWIDTH 8 0
BBX 2 9 3 0
BITMAP
c0
c0
c0
c0
c0
c0
00
c0
c0
ENDCHAR
STARTCHAR quotedbl
ENCODING 34
SWIDTH 615 0
DWIDTH 8 0
BBX 5 4 1 5
BITMAP
d8
d8
d8
d8
ENDCHAR
STARTCHAR numbersign
ENCODING 35
SWIDTH 615 0
DWIDTH 8 0
BBX 8 9 0 0
BITMAP
1b
1b
7f
36
36
36
ff
6c
6c
ENDCHAR
STARTCHAR dollar
ENCODING 36
SWIDTH 615 0
DWIDTH 8 0
BBX 6 10 1 -1
BITMAP
30
78
b4
b0
78
34
b4
b4
78
30
ENDCHAR
STARTCHAR percent
ENCODING 37
SWIDTH 615 0
DWIDTH 8 0
BBX 7 9 0 0
BITMAP
66
a6
ac
d8
38
36
6a
ca
cc
ENDCHAR
STARTCHAR ampersand
ENCODING 38
SWIDTH 615 0
DWIDTH 8 0
BBX 7 9 0 0
BITMAP
38
6c
6c
38
78
ce
cc
dc
76
ENDCHAR
STARTCHAR quoteright
ENCODING 39
SWIDTH 615 0
DWIDTH 8 0
BBX 4 4 2 6
BITMAP
30
30
60
c0
ENDCHAR
STARTCHAR parenleft
ENCODING 40
SWIDTH 615 0
DWIDTH 8 0
BBX 4 11 2 -1
BITMAP
30
60
60
c0
c0
c0
c0
c0
60
60
30
ENDCHAR
STARTCHAR parenright
ENCODING 41
SWIDTH 615 0
DWIDTH 8 0
BBX 4 11 2 -1
BITMAP
c0
60
60
30
30
30
30
30
60
60
c0
ENDCHAR
STARTCHAR asterisk
ENCODING 42
SWIDTH 615 0
DWIDTH 8 0
BBX 6 7 1 1
BITMAP
30
b4
fc
78
fc
b4
30
ENDCHAR
STARTCHAR plus
ENCODING 43
SWIDTH 615 0
DWIDTH 8 0
BBX 6 6 1 1
BITMAP
30
30
fc
fc
30
30
ENDCHAR
STARTCHAR comma
ENCODING 44
SWIDTH 615 0
DWIDTH 8 0
BBX 3 4 2 -2
BITMAP
60
60
20
c0
ENDCHAR
STARTCHAR minus
ENCODING 45
SWIDTH 615 0
DWIDTH 8 0
BBX 6 2 1 3
BITMAP
fc
fc
ENDCHAR
STARTCHAR period
ENCODING 46
SWIDTH 615 0
DWIDTH 8 0
BBX 2 2 3 0
BITMAP
c0
c0
ENDCHAR
STARTCHAR slash
ENCODING 47
SWIDTH 615 0
DWIDTH 8 0
BBX 6 10 1 0
BITMAP
0c
0c
18
18
30
30
60
60
c0
c0
ENDCHAR
STARTCHAR zero
ENCODING 48
SWIDTH 615 0
DWIDTH 8 0
BBX 6 9 1 0
BITMAP
78
cc
cc
dc
fc
ec
cc
cc
78
ENDCHAR
STARTCHAR one
ENCODING 49
SWIDTH 615 0
DWIDTH 8 0
BBX 4 9 2 0
BITMAP
60
e0
60
60
60
60
60
60
f0
ENDCHAR
STARTCHAR two
ENCODING 50
SWIDTH 615 0
DWIDTH 8 0
BBX 6 9 1 0
BITMAP
78
cc
cc
0c
18
30
60
c0
fc
ENDCHAR
STARTCHAR three
ENCODING 51
SWIDTH 615 0
DWIDTH 8 0
BBX 6 9 1 0
BITMAP
78
cc
0c
0c
38
0c
0c
cc
78
ENDCHAR
STARTCHAR four
ENCODING 52
SWIDTH 615 0
DWIDTH 8 0
BBX 7 9 0 0
BITMAP
0c
1c
3c
6c
cc
fe
0c
0c
0c
ENDCHAR
STARTCHAR five
ENCODING 53
SWIDTH 615 0
DWIDTH 8 0
BBX 6 9 1 0
BITMAP
fc
c0
c0
f8
0c
0c
0c
cc
78
ENDCHAR
STARTCHAR six
ENCODING 54
SWIDTH 615 0
DWIDTH 8 0
BBX 6 9 1 0
BITMAP
78
cc
c0
f8
cc
cc
cc
cc
78
ENDCHAR
STARTCHAR seven
ENCODING 55
SWIDTH 615 0
DWIDTH 8 0
BBX 6 9 1 0
BITMAP
fc
0c
18
18
30
30
60
60
60
ENDCHAR
STARTCHAR eight
ENCODING 56
SWIDTH 615 0
DWIDTH 8 0
BBX 6 9 1 0
BITMAP
78
cc
cc
cc
78
cc
cc
cc
78
ENDCHAR
STARTCHAR nine
ENCODING 57
SWIDTH 615 0
DWIDTH 8 0
BBX 6 9 1 0
BITMAP
78
cc
cc
cc
cc
7c
0c
cc
78
ENDCHAR
STARTCHAR colon
ENCODING 58
SWIDTH 615 0
DWIDTH 8 0
BBX 2 7 3 0
BITMAP
c0
c0
00
00
00
c0
c0
ENDCHAR
STARTCHAR semicolon
ENCODING 59
SWIDTH 615 0
DWIDTH 8 0
BBX 3 9 2 -2
BITMAP
60
60
00
00
00
60
60
20
c0
ENDCHAR
STARTCHAR less
ENCODING 60
SWIDTH 615 0
DWIDTH 8 0
BBX 5 9 1 0
BITMAP
08
18
30
60
c0
60
30
18
08
ENDCHAR
STARTCHAR equal
ENCODING 61
SWIDTH 615 0
DWIDTH 8 0
BBX 6 6 1 1
BITMAP
fc
fc
00
00
fc
fc
ENDCHAR
STARTCHAR greater
ENCODING 62
SWIDTH 615 0
DWIDTH 8 0
BBX 5 9 2 0
BITMAP
80
c0
60
30
18
30
60
c0
80
ENDCHAR
STARTCHAR question
ENCODING 63
SWIDTH 615 0
DWIDTH 8 0
BBX 6 10 1 0
BITMAP
78
cc
c4
0c
18
30
30
00
30
30
ENDCHAR
STARTCHAR at
ENCODING 64
SWIDTH 615 0
DWIDTH 8 0
BBX 6 9 1 0
BITMAP
30
78
cc
dc
d4
dc
c0
64
38
ENDCHAR
STARTCHAR A
ENCODING 65
SWIDTH 615 0
DWIDTH 8 0
BBX 7 9 0 0
BITMAP
10
38
38
6c
6c
c6
fe
c6
c6
ENDCHAR
STARTCHAR B
ENCODING 66
SWIDTH 615 0
DWIDTH 8 0
BBX 6 9 1 0
BITMAP
f8
cc
cc
cc
f8
cc
cc
cc
f8
ENDCHAR
STARTCHAR C
ENCODING 67
SWIDTH 615 0
DWIDTH 8 0
BBX 6 9 1 0
BITMAP
78
cc
c0
c0
c0
c0
c0
cc
78
ENDCHAR
STARTCHAR D
ENCODING 68
SWIDTH 615 0
DWIDTH 8 0
BBX 6 9 1 0
BITMAP
f0
d8
cc
cc
cc
cc
cc
d8
f0
ENDCHAR
STARTCHAR E
ENCODING 69
SWIDTH 615 0
DWIDTH 8 0
BBX 6 9 1 0
BITMAP
fc
c0
c0
c0
f8
c0
c0
c0
fc
ENDCHAR
STARTCHAR F
ENCODING 70
SWIDTH 615 0
DWIDTH 8 0
BBX 6 9 1 0
BITMAP
fc
c0
c0
c0
f8
c0
c0
c0
c0
ENDCHAR
STARTCHAR G
ENCODING 71
SWIDTH 615 0
DWIDTH 8 0
BBX 6 9 1 0
BITMAP
78
cc
c0
c0
dc
cc
cc
cc
74
ENDCHAR
STARTCHAR H
ENCODING 72
SWIDTH 615 0
DWIDTH 8 0
BBX 6 9 1 0
BITMAP
cc
cc
cc
cc
fc
cc
cc
cc
cc
ENDCHAR
STARTCHAR I
ENCODING 73
SWIDTH 615 0
DWIDTH 8 0
BBX 4 9 2 0
BITMAP
f0
60
60
60
60
60
60
60
f0
ENDCHAR
STARTCHAR J
ENCODING 74
SWIDTH 615 0
DWIDTH 8 0
BBX 6 9 1 0
BITMAP
0c
0c
0c
0c
0c
0c
cc
cc
78
ENDCHAR
STARTCHAR K
ENCODING 75
SWIDTH 615 0
DWIDTH 8 0
BBX 6 9 1 0
BITMAP
c4
cc
d8
f0
f0
d8
d8
cc
cc
ENDCHAR
STARTCHAR L
ENCODING 76
SWIDTH 615 0
DWIDTH 8 0
BBX 6 9 1 0
BITMAP
c0
c0
c0
c0
c0
c0
c0
c0
fc
ENDCHAR
STARTCHAR M
ENCODING 77
SWIDTH 615 0
DWIDTH 8 0
BBX 7 9 0 0
BITMAP
c6
c6
ee
ee
fe
d6
d6
c6
c6
ENDCHAR
STARTCHAR N
ENCODING 78
SWIDTH 615 0
DWIDTH 8 0
BBX 6 9 1 0
BITMAP
cc
cc
ec
ec
fc
dc
dc
cc
cc
ENDCHAR
STARTCHAR O
ENCODING 79
SWIDTH 615 0
DWIDTH 8 0
BBX 6 9 1 0
BITMAP
78
cc
cc
cc
cc
cc
cc
cc
78
ENDCHAR
STARTCHAR P
ENCODING 80
SWIDTH 615 0
DWIDTH 8 0
BBX 6 9 1 0
BITMAP
f8
cc
cc
cc
f8
c0
c0
c0
c0
ENDCHAR
STARTCHAR Q
ENCODING 81
SWIDTH 615 0
DWIDTH 8 0
BBX 6 11 1 -2
BITMAP
78
cc
cc
cc
cc
cc
cc
ec
78
10
0c
ENDCHAR
STARTCHAR R
ENCODING 82
SWIDTH 615 0
DWIDTH 8 0
BBX 6 9 1 0
BITMAP
f8
cc
cc
cc
f8
d8
cc
cc
cc
ENDCHAR
STARTCHAR S
ENCODING 83
SWIDTH 615 0
DWIDTH 8 0
BBX 6 9 1 0
BITMAP
78
cc
c0
70
38
0c
cc
cc
78
ENDCHAR
STARTCHAR T
ENCODING 84
SWIDTH 615 0
DWIDTH 8 0
BBX 6 9 1 0
BITMAP
fc
30
30
30
30
30
30
30
30
ENDCHAR
STARTCHAR U
ENCODING 85
SWIDTH 615 0
DWIDTH 8 0
BBX 6 9 1 0
BITMAP
cc
cc
cc
cc
cc
cc
cc
cc
78
ENDCHAR
STARTCHAR V
ENCODING 86
SWIDTH 615 0
DWIDTH 8 0
BBX 6 9 1 0
BITMAP
cc
cc
cc
48
78
78
30
30
30
ENDCHAR
STARTCHAR W
ENCODING 87
SWIDTH 615 0
DWIDTH 8 0
BBX 8 9 0 0
BITMAP
c3
c3
db
db
db
7e
7e
24
24
ENDCHAR
STARTCHAR X
ENCODING 88
SWIDTH 615 0
DWIDTH 8 0
BBX 6 9 1 0
BITMAP
cc
cc
cc
78
30
78
cc
cc
cc
ENDCHAR
STARTCHAR Y
ENCODING 89
SWIDTH 615 0
DWIDTH 8 0
BBX 6 9 1 0
BITMAP
cc
cc
cc
78
78
30
30
30
30
ENDCHAR
STARTCHAR Z
ENCODING 90
SWIDTH 615 0
DWIDTH 8 0
BBX 6 9 1 0
BITMAP
fc
0c
0c
18
30
60
c0
c0
fc
ENDCHAR
STARTCHAR bracketleft
ENCODING 91
SWIDTH 615 0
DWIDTH 8 0
BBX 5 11 2 -1
BITMAP
f8
c0
c0
c0
c0
c0
c0
c0
c0
c0
f8
ENDCHAR
STARTCHAR backslash
ENCODING 92
SWIDTH 615 0
DWIDTH 8 0
BBX 6 10 1 0
BITMAP
c0
c0
60
60
30
30
18
18
0c
0c
ENDCHAR
STARTCHAR bracketright
ENCODING 93
SWIDTH 615 0
DWIDTH 8 0
BBX 5 11 1 -1
BITMAP
f8
18
18
18
18
18
18
18
18
18
f8
ENDCHAR
STARTCHAR asciicircum
ENCODING 94
SWIDTH 615 0
DWIDTH 8 0
BBX 6 3 1 6
BITMAP
30
78
cc
ENDCHAR
STARTCHAR underscore
ENCODING 95
SWIDTH 615 0
DWIDTH 8 0
BBX 8 2 0 -2
BITMAP
ff
ff
ENDCHAR
STARTCHAR quoteleft
ENCODING 96
SWIDTH 615 0
DWIDTH 8 0
BBX 4 4 2 6
BITMAP
c0
c0
60
30
ENDCHAR
STARTCHAR a
ENCODING 97
SWIDTH 615 0
DWIDTH 8 0
BBX 6 7 1 0
BITMAP
78
cc
0c
7c
cc
cc
7c
ENDCHAR
STARTCHAR b
ENCODING 98
SWIDTH 615 0
DWIDTH 8 0
BBX 6 9 1 0
BITMAP
c0
c0
d8
ec
cc
cc
cc
ec
d8
ENDCHAR
STARTCHAR c
ENCODING 99
SWIDTH 615 0
DWIDTH 8 0
BBX 6 7 1 0
BITMAP
78
cc
c0
c0
c0
cc
78
ENDCHAR
STARTCHAR d
ENCODING 100
SWIDTH 615 0
DWIDTH 8 0
BBX 6 9 1 0
BITMAP
0c
0c
6c
dc
cc
cc
cc
dc
6c
ENDCHAR
STARTCHAR e
ENCODING 101
SWIDTH 615 0
DWIDTH 8 0
BBX 6 7 1 0
BITMAP
78
cc
cc
fc
c0
cc
78
ENDCHAR
STARTCHAR f
ENCODING 102
SWIDTH 615 0
DWIDTH 8 0
BBX 6 9 1 0
BITMAP
1c
30
fc
30
30
30
30
30
30
ENDCHAR
STARTCHAR g
ENCODING 103
SWIDTH 615 0
DWIDTH 8 0
BBX 6 10 1 -3
BITMAP
6c
dc
cc
cc
cc
dc
6c
0c
cc
78
ENDCHAR
STARTCHAR h
ENCODING 104
SWIDTH 615 0
DWIDTH 8 0
BBX 6 9 1 0
BITMAP
c0
c0
d8
ec
cc
cc
cc
cc
cc
ENDCHAR
STARTCHAR i
ENCODING 105
SWIDTH 615 0
DWIDTH 8 0
BBX 4 9 2 0
BITMAP
30
00
f0
30
30
30
30
30
30
ENDCHAR
STARTCHAR j
ENCODING 106
SWIDTH 615 0
DWIDTH 8 0
BBX 5 12 1 -3
BITMAP
18
00
78
18
18
18
18
18
18
18
d8
70
ENDCHAR
STARTCHAR k
ENCODING 107
SWIDTH 615 0
DWIDTH 8 0
BBX 6 9 1 0
BITMAP
c0
c0
cc
d8
f0
f0
d8
cc
cc
ENDCHAR
STARTCHAR l
ENCODING 108
SWIDTH 615 0
DWIDTH 8 0
BBX 4 9 2 0
BITMAP
f0
30
30
30
30
30
30
30
30
ENDCHAR
STARTCHAR m
ENCODING 109
SWIDTH 615 0
DWIDTH 8 0
BBX 7 7 0 0
BITMAP
ec
fe
d6
d6
d6
d6
d6
ENDCHAR
STARTCHAR n
ENCODING 110
SWIDTH 615 0
DWIDTH 8 0
BBX 6 7 1 0
BITMAP
b8
ec
cc
cc
cc
cc
cc
ENDCHAR
STARTCHAR o
ENCODING 111
SWIDTH 615 0
DWIDTH 8 0
BBX 6 7 1 0
BITMAP
78
cc
cc
cc
cc
cc
78
ENDCHAR
STARTCHAR p
ENCODING 112
SWIDTH 615 0
DWIDTH 8 0
BBX 6 10 1 -3
BITMAP
d8
ec
cc
cc
cc
ec
d8
c0
c0
c0
ENDCHAR
STARTCHAR q
ENCODING 113
SWIDTH 615 0
DWIDTH 8 0
BBX 6 10 1 -3
BITMAP
6c
dc
cc
cc
cc
dc
6c
0c
0c
0c
ENDCHAR
STARTCHAR r
ENCODING 114
SWIDTH 615 0
DWIDTH 8 0
BBX 6 7 1 0
BITMAP
d8
ec
c0
c0
c0
c0
c0
ENDCHAR
STARTCHAR s
ENCODING 115
SWIDTH 615 0
DWIDTH 8 0
BBX 6 7 1 0
BITMAP
78
cc
c0
78
0c
cc
78
ENDCHAR
STARTCHAR t
ENCODING 116
SWIDTH 615 0
DWIDTH 8 0
BBX 6 9 1 0
BITMAP
30
30
fc
30
30
30
30
30
1c
ENDCHAR
STARTCHAR u
ENCODING 117
SWIDTH 615 0
DWIDTH 8 0
BBX 6 7 1 0
BITMAP
cc
cc
cc
cc
cc
dc
6c
ENDCHAR
STARTCHAR v
ENCODING 118
SWIDTH 615 0
DWIDTH 8 0
BBX 6 7 1 0
BITMAP
cc
cc
cc
78
78
30
30
ENDCHAR
STARTCHAR w
ENCODING 119
SWIDTH 615 0
DWIDTH 8 0
BBX 7 7 0 0
BITMAP
c6
c6
d6
d6
d6
fe
6c
ENDCHAR
STARTCHAR x
ENCODING 120
SWIDTH 615 0
DWIDTH 8 0
BBX 6 7 1 0
BITMAP
cc
cc
78
30
78
cc
cc
ENDCHAR
STARTCHAR y
ENCODING 121
SWIDTH 615 0
DWIDTH 8 0
BBX 6 10 1 -3
BITMAP
cc
cc
cc
cc
cc
dc
6c
0c
cc
78
ENDCHAR
STARTCHAR z
ENCODING 122
SWIDTH 615 0
DWIDTH 8 0
BBX 6 7 1 0
BITMAP
fc
0c
18
30
60
c0
fc
ENDCHAR
STARTCHAR braceleft
ENCODING 123
SWIDTH 615 0
DWIDTH 8 0
BBX 6 12 1 -2
BITMAP
1c
30
30
30
30
e0
30
30
30
30
30
1c
ENDCHAR
STARTCHAR bar
ENCODING 124
SWIDTH 615 0
DWIDTH 8 0
BBX 2 12 3 -2
BITMAP
c0
c0
c0
c0
c0
c0
c0
c0
c0
c0
c0
c0
ENDCHAR
STARTCHAR braceright
ENCODING 125
SWIDTH 615 0
DWIDTH 8 0
BBX 6 12 1 -2
BITMAP
e0
30
30
30
30
1c
30
30
30
30
30
e0
ENDCHAR
STARTCHAR asciitilde
ENCODING 126
SWIDTH 615 0
DWIDTH 8 0
BBX 6 3 1 2
BITMAP
64
fc
98
ENDCHAR
STARTCHAR exclamdown
ENCODING 161
SWIDTH 615 0
DWIDTH 8 0
BBX 2 9 3 -2
BITMAP
c0
c0
00
c0
c0
c0
c0
c0
c0
ENDCHAR
STARTCHAR cent
ENCODING 162
SWIDTH 615 0
DWIDTH 8 0
BBX 6 10 1 0
BITMAP
30
30
78
cc
c0
c0
cc
78
30
30
ENDCHAR
STARTCHAR sterling
ENCODING 163
SWIDTH 615 0
DWIDTH 8 0
BBX 6 9 1 0
BITMAP
38
6c
60
60
f0
60
60
cc
f8
ENDCHAR
STARTCHAR currency
ENCODING 164
SWIDTH 615 0
DWIDTH 8 0
BBX 6 6 1 1
BITMAP
cc
fc
48
48
fc
cc
ENDCHAR
STARTCHAR yen
ENCODING 165
SWIDTH 615 0
DWIDTH 8 0
BBX 6 9 1 0
BITMAP
84
cc
78
30
fc
30
fc
30
78
ENDCHAR
STARTCHAR brokenbar
ENCODING 166
SWIDTH 615 0
DWIDTH 8 0
BBX 2 12 3 -2
BITMAP
c0
c0
c0
c0
c0
00
00
c0
c0
c0
c0
c0
ENDCHAR
STARTCHAR section
ENCODING 167
SWIDTH 615 0
DWIDTH 8 0
BBX 6 10 1 -1
BITMAP
78
cc
60
f8
8c
c4
7c
18
cc
78
ENDCHAR
STARTCHAR dieresis
ENCODING 168
SWIDTH 615 0
DWIDTH 8 0
BBX 5 2 1 7
BITMAP
d8
d8
ENDCHAR
STARTCHAR copyright
ENCODING 169
SWIDTH 615 0
DWIDTH 8 0
BBX 7 7 0 0
BITMAP
7c
c6
f6
e6
f6
c6
7c
ENDCHAR
STARTCHAR ordfeminine
ENCODING 170
SWIDTH 615 0
DWIDTH 8 0
BBX 5 7 1 2
BITMAP
70
18
78
d8
78
00
f8
ENDCHAR
STARTCHAR guillemotleft
ENCODING 171
SWIDTH 615 0
DWIDTH 8 0
BBX 7 6 0 0
BITMAP
36
6c
d8
d8
6c
36
ENDCHAR
STARTCHAR logicalnot
ENCODING 172
SWIDTH 615 0
DWIDTH 8 0
BBX 6 3 1 3
BITMAP
fc
fc
0c
ENDCHAR
STARTCHAR hyphen
ENCODING 173
SWIDTH 615 0
DWIDTH 8 0
BBX 4 2 2 3
BITMAP
f0
f0
ENDCHAR
STARTCHAR registered
ENCODING 174
SWIDTH 615 0
DWIDTH 8 0
BBX 7 7 0 0
BITMAP
7c
c6
f6
f6
ee
c6
7c
ENDCHAR
STARTCHAR macron
ENCODING 175
SWIDTH 615 0
DWIDTH 8 0
BBX 4 2 2 7
BITMAP
f0
f0
ENDCHAR
STARTCHAR degree
ENCODING 176
SWIDTH 615 0
DWIDTH 8 0
BBX 3 3 2 3
BITMAP
e0
a0
e0
ENDCHAR
STARTCHAR plusminus
ENCODING 177
SWIDTH 615 0
DWIDTH 8 0
BBX 6 7 1 0
BITMAP
30
30
fc
30
30
00
fc
ENDCHAR
STARTCHAR twosuperior
ENCODING 178
SWIDTH 615 0
DWIDTH 8 0
BBX 4 5 2 4
BITMAP
e0
30
60
c0
f0
ENDCHAR
STARTCHAR threesuperior
ENCODING 179
SWIDTH 615 0
DWIDTH 8 0
BBX 4 5 2 4
BITMAP
f0
30
60
30
f0
ENDCHAR
STARTCHAR acute
ENCODING 180
SWIDTH 615 0
DWIDTH 8 0
BBX 3 2 2 7
BITMAP
60
c0
ENDCHAR
STARTCHAR mu
ENCODING 181
SWIDTH 615 0
DWIDTH 8 0
BBX 6 9 1 -2
BITMAP
cc
cc
cc
cc
cc
dc
ec
c0
c0
ENDCHAR
STARTCHAR paragraph
ENCODING 182
SWIDTH 615 0
DWIDTH 8 0
BBX 8 11 0 -2
BITMAP
7f
f6
b6
b6
f6
76
36
36
36
36
36
ENDCHAR
STARTCHAR periodcentered
ENCODING 183
SWIDTH 615 0
DWIDTH 8 0
BBX 2 2 3 3
BITMAP
c0
c0
ENDCHAR
STARTCHAR cedilla
ENCODING 184
SWIDTH 615 0
DWIDTH 8 0
BBX 3 3 2 -3
BITMAP
60
20
e0
ENDCHAR
STARTCHAR onesuperior
ENCODING 185
SWIDTH 615 0
DWIDTH 8 0
BBX 4 5 2 4
BITMAP
60
e0
60
60
f0
ENDCHAR
STARTCHAR ordmasculine
ENCODING 186
SWIDTH 615 0
DWIDTH 8 0
BBX 5 7 1 2
BITMAP
70
d8
d8
d8
70
00
f8
ENDCHAR
STARTCHAR guillemotright
ENCODING 187
SWIDTH 615 0
DWIDTH 8 0
BBX 7 6 0 0
BITMAP
d8
6c
36
36
6c
d8
ENDCHAR
STARTCHAR onequarter
ENCODING 188
SWIDTH 615 0
DWIDTH 8 0
BBX 7 11 1 -1
BITMAP
60
e0
60
64
f8
10
2c
5c
94
3e
0c
ENDCHAR
STARTCHAR onehalf
ENCODING 189
SWIDTH 615 0
DWIDTH 8 0
BBX 6 12 1 -2
BITMAP
60
e0
60
64
f8
10
20
78
8c
18
30
3c
ENDCHAR
STARTCHAR threequarters
ENCODING 190
SWIDTH 615 0
DWIDTH 8 0
BBX 7 11 1 -1
BITMAP
f0
30
60
34
f8
10
2c
5c
94
3e
0c
ENDCHAR
STARTCHAR questiondown
ENCODING 191
SWIDTH 615 0
DWIDTH 8 0
BBX 6 10 1 -3
BITMAP
30
30
00
30
30
60
c0
8c
cc
78
ENDCHAR
STARTCHAR Agrave
ENCODING 192
SWIDTH 615 0
DWIDTH 8 0
BBX 7 10 0 0
BITMAP
30
18
00
10
38
38
6c
6c
fe
c6
ENDCHAR
STARTCHAR Aacute
ENCODING 193
SWIDTH 615 0
DWIDTH 8 0
BBX 7 10 0 0
BITMAP
18
30
00
10
38
38
6c
6c
fe
c6
ENDCHAR
STARTCHAR Acircumflex
ENCODING 194
SWIDTH 615 0
DWIDTH 8 0
BBX 7 10 0 0
BITMAP
38
6c
00
10
38
38
6c
6c
fe
c6
ENDCHAR
STARTCHAR Atilde
ENCODING 195
SWIDTH 615 0
DWIDTH 8 0
BBX 7 10 0 0
BITMAP
74
5c
00
10
38
38
6c
6c
fe
c6
ENDCHAR
STARTCHAR Adieresis
ENCODING 196
SWIDTH 615 0
DWIDTH 8 0
BBX 7 10 0 0
BITMAP
6c
6c
00
10
38
38
6c
6c
fe
c6
ENDCHAR
STARTCHAR Aring
ENCODING 197
SWIDTH 615 0
DWIDTH 8 0
BBX 7 10 0 0
BITMAP
38
28
38
10
38
38
6c
6c
fe
c6
ENDCHAR
STARTCHAR AE
ENCODING 198
SWIDTH 615 0
DWIDTH 8 0
BBX 7 9 0 0
BITMAP
3e
78
58
d8
dc
f8
d8
d8
de
ENDCHAR
STARTCHAR Ccedilla
ENCODING 199
SWIDTH 615 0
DWIDTH 8 0
BBX 6 11 1 -3
BITMAP
78
cc
c0
c0
c0
c0
cc
78
30
10
70
ENDCHAR
STARTCHAR Egrave
ENCODING 200
SWIDTH 615 0
DWIDTH 8 0
BBX 6 10 1 0
BITMAP
60
30
00
fc
c0
c0
f8
c0
c0
fc
ENDCHAR
STARTCHAR Eacute
ENCODING 201
SWIDTH 615 0
DWIDTH 8 0
BBX 6 10 1 0
BITMAP
18
30
00
fc
c0
c0
f8
c0
c0
fc
ENDCHAR
STARTCHAR Ecircumflex
ENCODING 202
SWIDTH 615 0
DWIDTH 8 0
BBX 6 10 1 0
BITMAP
38
6c
00
fc
c0
c0
f8
c0
c0
fc
ENDCHAR
STARTCHAR Edieresis
ENCODING 203
SWIDTH 615 0
DWIDTH 8 0
BBX 6 10 1 0
BITMAP
6c
6c
00
fc
c0
c0
f8
c0
c0
fc
ENDCHAR
STARTCHAR Igrave
ENCODING 204
SWIDTH 615 0
DWIDTH 8 0
BBX 4 10 2 0
BITMAP
c0
60
00
f0
60
60
60
60
60
f0
ENDCHAR
STARTCHAR Iacute
ENCODING 205
SWIDTH 615 0
DWIDTH 8 0
BBX 4 10 2 0
BITMAP
30
60
00
f0
60
60
60
60
60
f0
ENDCHAR
STARTCHAR Icircumflex
ENCODING 206
SWIDTH 615 0
DWIDTH 8 0
BBX 5 10 2 0
BITMAP
70
d8
00
f0
60
60
60
60
60
f0
ENDCHAR
STARTCHAR Idieresis
ENCODING 207
SWIDTH 615 0
DWIDTH 8 0
BBX 5 10 2 0
BITMAP
d8
d8
00
f0
60
60
60
60
60
f0
ENDCHAR
STARTCHAR Eth
ENCODING 208
SWIDTH 615 0
DWIDTH 8 0
BBX 7 8 0 0
BITMAP
78
6c
66
f6
66
66
6c
78
ENDCHAR
STARTCHAR Ntilde
ENCODING 209
SWIDTH 615 0
DWIDTH 8 0
BBX 6 10 1 0
BITMAP
e8
b8
00
cc
ec
ec
fc
dc
dc
cc
ENDCHAR
STARTCHAR Ograve
ENCODING 210
SWIDTH 615 0
DWIDTH 8 0
BBX 6 10 1 0
BITMAP
60
30
00
78
cc
cc
cc
cc
cc
78
ENDCHAR
STARTCHAR Oacute
ENCODING 211
SWIDTH 615 0
DWIDTH 8 0
BBX 6 10 1 0
BITMAP
18
30
00
78
cc
cc
cc
cc
cc
78
ENDCHAR
STARTCHAR Ocircumflex
ENCODING 212
SWIDTH 615 0
DWIDTH 8 0
BBX 6 10 1 0
BITMAP
38
6c
00
78
cc
cc
cc
cc
cc
78
ENDCHAR
STARTCHAR Otilde
ENCODING 213
SWIDTH 615 0
DWIDTH 8 0
BBX 6 10 1 0
BITMAP
74
5c
00
78
cc
cc
cc
cc
cc
78
ENDCHAR
STARTCHAR Odieresis
ENCODING 214
SWIDTH 615 0
DWIDTH 8 0
BBX 6 10 1 0
BITMAP
6c
6c
00
78
cc
cc
cc
cc
cc
78
ENDCHAR
STARTCHAR multiply
ENCODING 215
SWIDTH 615 0
DWIDTH 8 0
BBX 6 5 1 1
BITMAP
cc
78
30
78
cc
ENDCHAR
STARTCHAR Oslash
ENCODING 216
SWIDTH 615 0
DWIDTH 8 0
BBX 7 8 0 0
BITMAP
02
3c
66
6e
76
76
66
bc
ENDCHAR
STARTCHAR Ugrave
ENCODING 217
SWIDTH 615 0
DWIDTH 8 0
BBX 6 10 1 0
BITMAP
60
30
00
cc
cc
cc
cc
cc
cc
78
ENDCHAR
STARTCHAR Uacute
ENCODING 218
SWIDTH 615 0
DWIDTH 8 0
BBX 6 10 1 0
BITMAP
18
30
00
cc
cc
cc
cc
cc
cc
78
ENDCHAR
STARTCHAR Ucircumflex
ENCODING 219
SWIDTH 615 0
DWIDTH 8 0
BBX 6 10 1 0
BITMAP
38
6c
00
cc
cc
cc
cc
cc
cc
78
ENDCHAR
STARTCHAR Udieresis
ENCODING 220
SWIDTH 615 0
DWIDTH 8 0
BBX 6 10 1 0
BITMAP
6c
6c
00
cc
cc
cc
cc
cc
cc
78
ENDCHAR
STARTCHAR Yacute
ENCODING 221
SWIDTH 615 0
DWIDTH 8 0
BBX 6 10 1 0
BITMAP
18
30
00
cc
cc
78
78
30
30
30
ENDCHAR
STARTCHAR Thorn
ENCODING 222
SWIDTH 615 0
DWIDTH 8 0
BBX 7 8 0 0
BITMAP
f0
60
7c
66
66
7c
60
f0
ENDCHAR
STARTCHAR germandbls
ENCODING 223
SWIDTH 615 0
DWIDTH 8 0
BBX 6 8 1 0
BITMAP
70
d8
d8
f0
d8
cc
ec
d8
ENDCHAR
STARTCHAR agrave
ENCODING 224
SWIDTH 615 0
DWIDTH 8 0
BBX 6 9 1 0
BITMAP
60
30
00
78
cc
0c
7c
cc
7c
ENDCHAR
STARTCHAR aacute
ENCODING 225
SWIDTH 615 0
DWIDTH 8 0
BBX 6 9 1 0
BITMAP
18
30
00
78
cc
0c
7c
cc
7c
ENDCHAR
STARTCHAR acircumflex
ENCODING 226
SWIDTH 615 0
DWIDTH 8 0
BBX 6 9 1 0
BITMAP
38
6c
00
78
cc
0c
7c
cc
7c
ENDCHAR
STARTCHAR atilde
ENCODING 227
SWIDTH 615 0
DWIDTH 8 0
BBX 6 9 1 0
BITMAP
74
5c
00
78
cc
0c
7c
cc
7c
ENDCHAR
STARTCHAR adieresis
ENCODING 228
SWIDTH 615 0
DWIDTH 8 0
BBX 6 9 1 0
BITMAP
6c
6c
00
78
cc
0c
7c
cc
7c
ENDCHAR
STARTCHAR aring
ENCODING 229
SWIDTH 615 0
DWIDTH 8 0
BBX 6 10 1 0
BITMAP
38
28
38
00
78
cc
0c
7c
cc
7c
ENDCHAR
STARTCHAR ae
ENCODING 230
SWIDTH 615 0
DWIDTH 8 0
BBX 8 6 0 0
BITMAP
7e
1b
7e
d8
d8
6e
ENDCHAR
STARTCHAR ccedilla
ENCODING 231
SWIDTH 615 0
DWIDTH 8 0
BBX 6 9 1 -3
BITMAP
78
cc
c0
c0
cc
78
30
10
70
ENDCHAR
STARTCHAR egrave
ENCODING 232
SWIDTH 615 0
DWIDTH 8 0
BBX 6 9 1 0
BITMAP
60
30
00
78
cc
fc
c0
cc
78
ENDCHAR
STARTCHAR eacute
ENCODING 233
SWIDTH 615 0
DWIDTH 8 0
BBX 6 9 1 0
BITMAP
18
30
00
78
cc
fc
c0
cc
78
ENDCHAR
STARTCHAR ecircumflex
ENCODING 234
SWIDTH 615 0
DWIDTH 8 0
BBX 6 9 1 0
BITMAP
38
6c
00
78
cc
fc
c0
cc
78
ENDCHAR
STARTCHAR edieresis
ENCODING 235
SWIDTH 615 0
DWIDTH 8 0
BBX 6 9 1 0
BITMAP
6c
6c
00
78
cc
fc
c0
cc
78
ENDCHAR
STARTCHAR igrave
ENCODING 236
SWIDTH 615 0
DWIDTH 8 0
BBX 4 9 2 0
BITMAP
60
30
00
f0
30
30
30
30
30
ENDCHAR
STARTCHAR iacute
ENCODING 237
SWIDTH 615 0
DWIDTH 8 0
BBX 4 9 2 0
BITMAP
30
60
00
f0
30
30
30
30
30
ENDCHAR
STARTCHAR icircumflex
ENCODING 238
SWIDTH 615 0
DWIDTH 8 0
BBX 5 9 2 0
BITMAP
70
d8
00
f0
30
30
30
30
30
ENDCHAR
STARTCHAR idieresis
ENCODING 239
SWIDTH 615 0
DWIDTH 8 0
BBX 5 9 2 0
BITMAP
d8
d8
00
f0
30
30
30
30
30
ENDCHAR
STARTCHAR eth
ENCODING 240
SWIDTH 615 0
DWIDTH 8 0
BBX 6 9 1 0
BITMAP
d8
70
98
7c
cc
cc
cc
cc
78
ENDCHAR
STARTCHAR ntilde
ENCODING 241
SWIDTH 615 0
DWIDTH 8 0
BBX 6 9 1 0
BITMAP
74
5c
00
b8
ec
cc
cc
cc
cc
ENDCHAR
STARTCHAR ograve
ENCODING 242
SWIDTH 615 0
DWIDTH 8 0
BBX 6 9 1 0
BITMAP
60
30
00
78
cc
cc
cc
cc
78
ENDCHAR
STARTCHAR oacute
ENCODING 243
SWIDTH 615 0
DWIDTH 8 0
BBX 6 9 1 0
BITMAP
18
30
00
78
cc
cc
cc
cc
78
ENDCHAR
STARTCHAR ocircumflex
ENCODING 244
SWIDTH 615 0
DWIDTH 8 0
BBX 6 9 1 0
BITMAP
38
6c
00
78
cc
cc
cc
cc
78
ENDCHAR
STARTCHAR otilde
ENCODING 245
SWIDTH 615 0
DWIDTH 8 0
BBX 6 9 1 0
BITMAP
74
5c
00
78
cc
cc
cc
cc
78
ENDCHAR
STARTCHAR odieresis
ENCODING 246
SWIDTH 615 0
DWIDTH 8 0
BBX 6 9 1 0
BITMAP
6c
6c
00
78
cc
cc
cc
cc
78
ENDCHAR
STARTCHAR divide
ENCODING 247
SWIDTH 615 0
DWIDTH 8 0
BBX 6 8 1 0
BITMAP
30
30
00
fc
fc
00
30
30
ENDCHAR
STARTCHAR oslash
ENCODING 248
SWIDTH 615 0
DWIDTH 8 0
BBX 8 6 0 0
BITMAP
3d
66
6e
76
66
bc
ENDCHAR
STARTCHAR ugrave
ENCODING 249
SWIDTH 615 0
DWIDTH 8 0
BBX 6 9 1 0
BITMAP
60
30
00
cc
cc
cc
cc
dc
6c
ENDCHAR
STARTCHAR uacute
ENCODING 250
SWIDTH 615 0
DWIDTH 8 0
BBX 6 9 1 0
BITMAP
18
30
00
cc
cc
cc
cc
dc
6c
ENDCHAR
STARTCHAR ucircumflex
ENCODING 251
SWIDTH 615 0
DWIDTH 8 0
BBX 6 9 1 0
BITMAP
38
6c
00
cc
cc
cc
cc
dc
6c
ENDCHAR
STARTCHAR udieresis
ENCODING 252
SWIDTH 615 0
DWIDTH 8 0
BBX 6 9 1 0
BITMAP
6c
6c
00
cc
cc
cc
cc
dc
6c
ENDCHAR
STARTCHAR yacute
ENCODING 253
SWIDTH 615 0
DWIDTH 8 0
BBX 6 12 1 -3
BITMAP
18
30
00
cc
cc
cc
cc
dc
6c
0c
cc
78
ENDCHAR
STARTCHAR thorn
ENCODING 254
SWIDTH 615 0
DWIDTH 8 0
BBX 7 11 0 -2
BITMAP
e0
60
7c
66
66
66
66
7c
60
60
f0
ENDCHAR
STARTCHAR ydieresis
ENCODING 255
SWIDTH 615 0
DWIDTH 8 0
BBX 6 12 1 -3
BITMAP
6c
6c
00
cc
cc
cc
cc
dc
6c
0c
cc
78
ENDCHAR
ENDFONT
